<svg width="24" height="24" viewBox="0 0 24 24" fill="none" xmlns="http://www.w3.org/2000/svg">
<path d="M9.67075 19.3763C9.87857 19.5581 10.1944 19.5371 10.3763 19.3293C10.5581 19.1214 10.5371 18.8056 10.3293 18.6237L9.67075 19.3763ZM2 12L1.67075 11.6237C1.56224 11.7187 1.5 11.8558 1.5 12C1.5 12.1442 1.56224 12.2813 1.67075 12.3763L2 12ZM10.3293 5.37629C10.5371 5.19445 10.5581 4.87857 10.3763 4.67075C10.1944 4.46293 9.87857 4.44187 9.67075 4.62371L10.3293 5.37629ZM22 12.5C22.2761 12.5 22.5 12.2761 22.5 12C22.5 11.7239 22.2761 11.5 22 11.5V12.5ZM10.3293 18.6237L2.32925 11.6237L1.67075 12.3763L9.67075 19.3763L10.3293 18.6237ZM2.32925 12.3763L10.3293 5.37629L9.67075 4.62371L1.67075 11.6237L2.32925 12.3763ZM2 12.5L22 12.5V11.5L2 11.5V12.5Z" fill="#1A1A1A"/>
</svg>
