<svg width="18" height="20" viewBox="0 0 18 20" fill="none" xmlns="http://www.w3.org/2000/svg">
<path d="M0.643218 9.22522L8.64322 1.07707C8.8392 0.877467 9.1608 0.877467 9.35678 1.07707L17.3568 9.22522C17.4486 9.31871 17.5 9.4445 17.5 9.57552V19C17.5 19.2761 17.2761 19.5 17 19.5H11.5C11.2239 19.5 11 19.2761 11 19V15.1667C11 14.3382 10.3284 13.6667 9.5 13.6667H8.5C7.67157 13.6667 7 14.3382 7 15.1667V19C7 19.2761 6.77614 19.5 6.5 19.5H1C0.723857 19.5 0.5 19.2761 0.5 19V9.57552C0.5 9.4445 0.551427 9.31871 0.643218 9.22522Z" stroke="#1A1A1A" stroke-linejoin="round"/>
</svg>
