<svg width="24" height="24" viewBox="0 0 24 24" fill="none" xmlns="http://www.w3.org/2000/svg">
<path d="M14.1818 2.63095L14.1838 2.62744C14.1988 2.60154 14.1987 2.57014 14.1836 2.54422L14.1836 2.54415C14.1683 2.51792 14.1388 2.5 14.1049 2.5C12.3489 2.5 11.0441 2.99328 10.1557 3.90154L10.1557 3.90155C9.3897 4.68463 9.00905 5.70198 8.82838 6.69635C8.64777 7.6903 8.67379 8.62035 8.69083 9.2047L14.1818 2.63095ZM14.1818 2.63095C14.1281 2.72541 13.6385 3.6172 13.6598 4.80258C13.6818 6.03179 14.2532 7.49768 16.1946 8.67068L16.4531 8.24273M14.1818 2.63095L16.4531 8.24273M16.4531 8.24273L16.1946 8.67069C16.8463 9.06448 17.6823 9.79603 18.352 10.7497C19.0208 11.702 19.5 12.8411 19.5 14.0552C19.5 16.0307 18.722 17.8943 17.3043 19.3063C15.883 20.7218 14.0007 21.5 11.9997 21.5C10.0102 21.5 8.12729 20.7119 6.69525 19.2741L6.69523 19.2741C6.00744 18.5836 5.46764 17.7861 5.08907 16.9028C4.69767 15.9896 4.5 15.0322 4.5 14.0552C4.5 13.0191 4.7687 11.9224 5.20548 11.0994C5.65841 10.246 6.19826 9.84305 6.67654 9.84305C6.70342 9.84305 6.72817 9.85449 6.74485 9.87309L6.74491 9.87316C6.7614 9.89154 6.76865 9.91526 6.76593 9.93843L6.76584 9.93923C6.70753 10.4437 6.68929 11.1493 6.76097 11.8189C6.79687 12.1544 6.85661 12.4933 6.95098 12.7994C7.04351 13.0996 7.17997 13.4037 7.3904 13.638L7.39048 13.6381C7.63349 13.9086 7.93441 14.0387 8.29591 14.0387C8.42482 14.0387 8.53354 14.0262 8.62486 14.0036C8.67027 13.9923 8.71603 13.9773 8.76001 13.9574C8.78178 13.9475 8.80738 13.9344 8.83428 13.9173C8.85256 13.9057 8.90464 13.8719 8.95435 13.8132L8.95437 13.8132L8.95769 13.8092C9.07878 13.663 9.1374 13.4332 9.12266 13.0602L9.12265 13.0601M16.4531 8.24273L9.12265 13.0601M9.12265 13.0601C9.10904 12.7169 9.03534 12.2959 8.95948 11.8626L8.95465 11.835C8.83019 11.1239 8.69808 10.3629 8.69808 9.54406C8.69808 9.45191 8.69456 9.33165 8.69083 9.20484L9.12265 13.0601ZM7.26253 9.99664C7.282 9.83055 7.2291 9.66414 7.11712 9.5393C7.00517 9.41445 6.84485 9.34305 6.67654 9.34305C5.14469 9.34305 4 11.8309 4 14.0552L7.26253 9.99664Z" stroke="black"/>
</svg>
