<svg width="24" height="24" viewBox="0 0 24 24" fill="none" xmlns="http://www.w3.org/2000/svg">
<path d="M11.6065 4.45998L12 4.96173L12.3934 4.45998C13.9597 2.46267 16.7206 1.89194 18.9244 3.21429C21.3809 4.68826 22.2363 7.96955 20.8071 10.5424C19.4741 12.9419 18.6832 13.8993 17.3266 15.5414C17.1253 15.7851 16.9115 16.0438 16.6817 16.3246C15.3096 18.0008 13.1839 20.1387 12 21.3009C10.816 20.1387 8.69035 18.0008 7.3183 16.3246C7.08846 16.0438 6.87469 15.7851 6.67337 15.5414C5.31685 13.8993 4.52594 12.9419 3.19294 10.5424C1.76367 7.96957 2.6191 4.68827 5.07559 3.21431C7.27939 1.89196 10.0403 2.46268 11.6065 4.45998Z" stroke="#1A1A1A"/>
</svg>
