<svg width="24" height="24" viewBox="0 0 24 24" fill="none" xmlns="http://www.w3.org/2000/svg">
<path fill-rule="evenodd" clip-rule="evenodd" d="M14.1482 14.0465C11.5605 16.6125 7.36517 16.6125 4.77755 14.0465C2.18992 11.4806 2.18992 7.32029 4.77755 4.75431C7.36517 2.18833 11.5605 2.18833 14.1482 4.75431C16.7358 7.32029 16.7358 11.4806 14.1482 14.0465ZM14.3463 14.9969C11.4145 17.5178 6.97243 17.3966 4.18582 14.6333C1.27139 11.7433 1.27139 7.05758 4.18582 4.16754C7.10024 1.27749 11.8255 1.27749 14.7399 4.16754C17.5834 6.9873 17.6526 11.5164 14.9474 14.4193L21.8774 21.2915C22.0409 21.4535 22.0409 21.7162 21.8774 21.8782C21.7141 22.0403 21.4491 22.0403 21.2857 21.8782L14.3463 14.9969Z" fill="#1A1A1A"/>
</svg>
